Coordinates
version=1
nRows=26
nColumns=30
inDegrees=yes

Units are S.I. units (second, meters, Newtons, ...)
Angles are in degrees.

endheader
time	floatyaw	floatroll	floatpitch	floatx	floaty	floatz	pro_sup_l	deviation_l	flexion_l	cmc_flexion_l	cmc_abduction_l	mp_flexion_l	ip_flexion_l	2mcp_flexion_l	2mcp_abduction_l	2pm_flexion_l	2md_flexion_l	3mcp_flexion_l	3mcp_abduction_l	3pm_flexion_l	3md_flexion_l	4mcp_flexion_l	4mcp_abduction_l	4pm_flexion_l	4md_flexion_l	5mcp_flexion_l	5mcp_abduction_l	5pm_flexion_l	5md_flexion_l
-0.995000	-2.367547	-3.808797	97.590660	-0.094631	-0.185072	-0.029402	86.375378	3.012434	-1.207010	12.752004	8.456099	-22.174593	-34.817339	39.560647	10.119325	47.859464	33.166803	24.393958	5.359537	47.136887	32.758293	13.949425	-4.675525	62.227144	42.739039	9.625152	-10.764690	61.400496	41.860879
-0.985000	-2.367547	-3.808797	97.590660	-0.094619	-0.185073	-0.029408	86.376273	3.034126	-1.210078	12.725268	8.413898	-22.201744	-34.824290	39.552528	10.103874	47.857085	33.167675	24.391745	5.361613	47.130909	32.775706	13.967015	-4.674414	62.212253	42.751760	9.672280	-10.773120	61.360462	41.839122
-0.975000	-2.367547	-3.808797	97.590660	-0.094601	-0.185084	-0.029409	86.380202	3.055555	-1.225817	12.706223	8.375056	-22.232663	-34.832649	39.551001	10.093137	47.853717	33.167533	24.400176	5.361938	47.122194	32.786542	13.986218	-4.672172	62.209947	42.765812	9.709727	-10.777869	61.327464	41.824602
-0.965000	-2.367547	-3.808797	97.590660	-0.094578	-0.185104	-0.029399	86.385414	3.070442	-1.251592	12.693876	8.347839	-22.265058	-34.848319	39.554268	10.090308	47.854884	33.167542	24.417671	5.361510	47.114872	32.790429	14.007815	-4.670666	62.223859	42.780128	9.740643	-10.783554	61.312929	41.819822
-0.955000	-2.367547	-3.808797	97.590660	-0.094551	-0.185129	-0.029380	86.391014	3.075716	-1.280946	12.685907	8.336196	-22.296884	-34.875770	39.559040	10.096083	47.865678	33.169000	24.439269	5.362032	47.110663	32.787985	14.031733	-4.671197	62.251298	42.792872	9.775140	-10.797128	61.321283	41.823155
-0.945000	-2.367547	-3.808797	97.590660	-0.094525	-0.185151	-0.029356	86.397419	3.072329	-1.306231	12.679979	8.338194	-22.326279	-34.915488	39.563357	10.107545	47.888243	33.172862	24.459084	5.365016	47.109577	32.781519	14.057371	-4.674057	62.283734	42.802070	9.823631	-10.822436	61.347287	41.829700
-0.935000	-2.367547	-3.808797	97.590660	-0.094504	-0.185163	-0.029332	86.405737	3.063937	-1.321805	12.674874	8.347300	-22.351652	-34.963281	39.567641	10.118666	47.920916	33.179444	24.472437	5.370655	47.112078	32.775347	14.083575	-4.678572	62.310896	42.806825	9.888386	-10.855963	61.377963	41.833796
-0.925000	-2.367547	-3.808797	97.590660	-0.094490	-0.185161	-0.029312	86.416817	3.054459	-1.326434	12.671227	8.354878	-22.372257	-35.012414	39.573581	10.122677	47.959591	33.188439	24.477422	5.377245	47.120480	32.774797	14.108661	-4.683679	62.326041	42.808271	9.958660	-10.886481	61.398963	41.832033
-0.915000	-2.367547	-3.808797	97.590660	-0.094486	-0.185149	-0.029295	86.430810	3.046086	-1.323743	12.671315	8.352395	-22.388515	-35.056897	39.582287	10.115279	47.999838	33.199096	24.475695	5.381716	47.137853	32.783938	14.130933	-4.688650	62.328888	42.809446	10.013324	-10.899285	61.401756	41.825031
-0.905000	-2.367547	-3.808797	97.590660	-0.094491	-0.185133	-0.029278	86.447260	3.038862	-1.320234	12.677446	8.333165	-22.401461	-35.093311	39.593466	10.096899	48.037916	33.210297	24.471991	5.381103	47.165109	32.803286	14.149523	-4.693374	62.324870	42.814072	10.030758	-10.883139	61.387314	41.816896
-0.895000	-2.367547	-3.808797	97.590660	-0.094505	-0.185119	-0.029257	86.465296	3.031840	-1.321549	12.689709	8.294138	-22.411772	-35.120347	39.605950	10.072688	48.070563	33.220656	24.472235	5.374111	47.198931	32.829167	14.164919	-4.697984	62.322142	42.824985	10.001085	-10.836461	61.364834	41.812769
-0.885000	-2.367547	-3.808797	97.590660	-0.094523	-0.185111	-0.029230	86.483619	3.024706	-1.328781	12.704873	8.237490	-22.419461	-35.137581	39.618567	10.050284	48.095167	33.228947	24.481044	5.361927	47.232649	32.855381	14.178731	-4.702300	62.328600	42.843062	9.933773	-10.769386	61.347349	41.816069
-0.875000	-2.367547	-3.808797	97.590660	-0.094542	-0.185108	-0.029202	86.500392	3.018522	-1.336933	12.717518	8.170780	-22.424529	-35.145091	39.630333	10.036562	48.111165	33.234894	24.499830	5.347940	47.259618	32.876197	14.192811	-4.705694	62.349745	42.866971	9.855862	-10.700465	61.346860	41.826837
-0.865000	-2.367547	-3.808797	97.590660	-0.094555	-0.185104	-0.029179	86.513350	3.015150	-1.336752	12.722725	8.104703	-22.427758	-35.143868	39.639981	10.034935	48.121453	33.239691	24.526360	5.336511	47.276575	32.888846	14.208293	-4.707482	62.386946	42.893578	9.801271	-10.649562	61.370191	41.841612
-0.855000	-2.367547	-3.808797	97.590660	-0.094558	-0.185093	-0.029168	86.520382	3.016126	-1.319462	12.718573	8.049084	-22.430608	-35.135916	39.645631	10.044286	48.131897	33.245650	24.555798	5.331296	47.284845	32.894285	14.225232	-4.707412	62.436131	42.918773	9.796578	-10.630298	61.416180	41.854548
-0.845000	-2.367547	-3.808797	97.590660	-0.094549	-0.185075	-0.029175	86.520248	3.022037	-1.282043	12.707126	8.009047	-22.434271	-35.123723	39.645112	10.059847	48.148725	33.255043	24.582591	5.333797	47.289209	32.896251	14.243079	-4.705865	62.488214	42.938563	9.850506	-10.645424	61.475382	41.859369
-0.835000	-2.367547	-3.808797	97.590660	-0.094526	-0.185053	-0.029197	86.512779	3.032563	-1.229905	12.693568	7.983307	-22.438892	-35.109879	39.636720	10.075569	48.175660	33.268919	24.602398	5.342775	47.295727	32.899527	14.261575	-4.703663	62.532351	42.950318	9.952330	-10.687072	61.533429	41.851605
-0.825000	-2.367547	-3.808797	97.590660	-0.094490	-0.185036	-0.029229	86.498511	3.046762	-1.175132	12.683866	7.965231	-22.443891	-35.097452	39.620035	10.086906	48.212893	33.286696	24.613396	5.354773	47.309671	32.908201	14.281220	-4.701693	62.560894	42.953721	10.079104	-10.741317	61.577146	41.830267
-0.815000	-2.367547	-3.808797	97.590660	-0.094444	-0.185034	-0.029265	86.478691	3.063358	-1.131360	12.681902	7.945930	-22.449224	-35.090570	39.596664	10.092553	48.258234	33.306687	24.616627	5.365423	47.333999	32.924313	14.302899	-4.700590	62.573003	42.950865	10.206334	-10.794028	61.600212	41.798244
-0.805000	-2.367547	-3.808797	97.590660	-0.094391	-0.185051	-0.029299	86.456189	3.081210	-1.108380	12.687554	7.918083	-22.456480	-35.094190	39.570623	10.094163	48.309043	33.327018	24.615310	5.370918	47.368627	32.947191	14.327082	-4.700632	62.574543	42.945324	10.315708	-10.834675	61.605143	41.761199
-0.795000	-2.367547	-3.808797	97.590660	-0.094335	-0.185082	-0.029326	86.436130	3.099793	-1.109268	12.696976	7.879202	-22.468645	-35.112624	39.547749	10.094466	48.363317	33.346334	24.613511	5.369139	47.410862	32.973843	14.353341	-4.701839	62.574635	42.940739	10.397722	-10.857174	61.600716	41.725461
-0.785000	-2.367547	-3.808797	97.590660	-0.094282	-0.185119	-0.029344	86.424552	3.119124	-1.130726	12.705025	7.833129	-22.488360	-35.147415	39.533773	10.095413	48.419450	33.364079	24.614848	5.360247	47.456964	33.000374	14.380607	-4.704159	62.581388	42.939792	10.451368	-10.859351	61.596745	41.695757
-0.775000	-2.367547	-3.808797	97.590660	-0.094234	-0.185149	-0.029355	86.425303	3.139017	-1.165476	12.708379	7.788754	-22.515847	-35.195753	39.531739	10.097755	48.475367	33.380416	24.621722	5.346602	47.503989	33.023745	14.407964	-4.707716	62.599217	42.943901	10.482967	-10.842479	61.599434	41.673796
-0.765000	-2.367547	-3.808797	97.590660	-0.094194	-0.185164	-0.029359	86.437739	3.158509	-1.205157	12.707551	7.755936	-22.548119	-35.250616	39.540281	10.101930	48.528023	33.395925	24.634961	5.331883	47.550653	33.042782	14.435523	-4.713049	62.628405	42.953313	10.503417	-10.810501	61.609876	41.658512
-0.755000	-2.367547	-3.808797	97.590660	-0.094163	-0.185166	-0.029360	86.457485	3.176344	-1.242736	12.706757	7.740346	-22.580240	-35.303050	39.553993	10.108750	48.573885	33.411098	24.653631	5.319542	47.596755	33.057945	14.464668	-4.721077	62.666056	42.967111	10.522981	-10.768069	61.626009	41.647846
-0.745000	-2.367547	-3.808797	97.590660	-0.094138	-0.185158	-0.029362	86.479610	3.192209	-1.274001	12.711791	7.740048	-22.607754	-35.345685	39.565818	10.118792	48.610320	33.425830	24.675007	5.311238	47.641897	33.070338	14.497090	-4.732516	62.707352	42.983193	10.545927	-10.718330	61.645920	41.640725
